<svg width="45" height="40" viewBox="0 0 45 40" fill="none" xmlns="http://www.w3.org/2000/svg">
<rect width="45" height="40" rx="4" fill="white"/>
<path d="M34.5 16.5427C34.5 15.768 33.906 15.1341 33.1799 15.1341H31.6014L30.4568 11.9585C30.1724 11.1698 29.3168 10.3342 28.5551 10.102C28.5552 10.1024 26.58 9.5 22.4998 9.5C18.4197 9.5 16.4446 10.1024 16.4446 10.1024C15.683 10.3346 14.8274 11.1698 14.5431 11.9588L13.3985 15.1342H11.82C11.094 15.1342 10.5 15.768 10.5 16.5427C10.5 17.3173 11.094 17.9513 11.82 17.9513H12.383L11.9769 19.0782C11.6926 19.8665 11.46 21.2037 11.46 22.0488V28.7074C11.46 29.6933 12.216 30.5 13.1399 30.5C14.0638 30.5 14.8199 29.6932 14.8199 28.7074V27.6831H30.1798V28.7074C30.1798 29.6933 30.9358 30.5 31.8597 30.5C32.7837 30.5 33.5397 29.6932 33.5397 28.7074L33.54 22.0488C33.54 21.2037 33.3072 19.8665 33.0231 19.078L32.6168 17.9513H33.18C33.906 17.9513 34.5 17.3173 34.5 16.5427ZM14.7459 16.9586L16.0941 13.0539C16.1855 12.7895 16.4761 12.5731 16.7401 12.5731H28.26C28.5241 12.5731 28.8148 12.7895 28.9059 13.0535L30.2541 16.9582C30.3451 17.2226 30.204 17.4389 29.94 17.4389H15.0601C14.7961 17.4389 14.6547 17.2226 14.7459 16.9586ZM14.7001 23.329C13.971 23.329 13.38 22.6977 13.38 21.9204C13.38 21.1432 13.971 20.5118 14.7001 20.5118C15.429 20.5118 16.0201 21.1432 16.0201 21.9204C16.0201 22.6977 15.429 23.329 14.7001 23.329ZM30.3 23.329C29.5709 23.329 28.9799 22.6984 28.9799 21.9204C28.9799 21.1424 29.5709 20.5118 30.3 20.5118C31.0291 20.5118 31.62 21.1424 31.62 21.9204C31.62 22.6986 31.0291 23.329 30.3 23.329Z" fill="black"/>
</svg>
