<svg width="45" height="40" viewBox="0 0 45 40" fill="none" xmlns="http://www.w3.org/2000/svg">
<rect width="45" height="40" rx="4" fill="white"/>
<path d="M22.2295 25.0093C20.7576 25.0093 19.5336 26.1093 19.3438 27.531H25.1112C24.9214 26.1092 23.7013 25.0093 22.2294 25.0093H22.2295Z" fill="black"/>
<path d="M29.7903 16.7933V10.7469C29.7903 9.78601 29.0041 9 28.0433 9H16.411C15.4501 9 14.6641 9.7862 14.6641 10.7469V16.7933C19.8549 18.0484 24.9018 17.9747 29.7902 16.7933H29.7903ZM16.4576 15.3253L16.9612 10.8166C17.0039 10.6034 17.1898 10.4485 17.4105 10.4485H27.0475C27.2645 10.4485 27.4543 10.6034 27.4968 10.8166L27.9965 15.3253C28.0546 15.6081 27.8378 15.8715 27.5471 15.8715H16.9068C16.6163 15.8715 16.3993 15.6081 16.4573 15.3253H16.4576Z" fill="black"/>
<path d="M21.9578 20.0696C21.2413 20.0696 20.6562 20.6544 20.6562 21.3711C20.6564 22.0877 21.2413 22.6725 21.9578 22.6725C22.6744 22.6725 23.2594 22.0877 23.2594 21.371C23.2594 20.6544 22.6744 20.0696 21.9578 20.0696Z" fill="black"/>
<path d="M27.639 28.3211H26.5312V29.4483C26.5312 29.9828 26.965 30.4168 27.4997 30.4168H28.929C29.4634 30.4168 29.8974 29.983 29.8974 29.4483V27.2559C29.3589 27.9066 28.5454 28.3211 27.639 28.3211V28.3211Z" fill="black"/>
<path d="M20.3361 30.5592C20.3361 31.1984 20.859 31.7213 21.4982 31.7213H22.9584C23.5976 31.7213 24.1205 31.1984 24.1205 30.5592V28.3125H20.3359L20.3361 30.5592Z" fill="black"/>
<path d="M14.5469 27.2559V29.4483C14.5469 29.9828 14.9807 30.4168 15.5153 30.4168H16.9446C17.4791 30.4168 17.9131 29.983 17.9131 29.4483V28.3211H16.8051C15.8986 28.3211 15.0852 27.9066 14.5469 27.2559V27.2559Z" fill="black"/>
<path d="M33.6479 14.4008H32.1683C31.723 14.4008 31.3588 14.7649 31.3588 15.2103V17.3098C31.3588 17.7554 31.723 18.1194 32.1683 18.1194H32.5209V19.1381C32.5209 19.3899 32.3157 19.5953 32.0638 19.5953H29.7901V17.6082C27.3108 18.193 24.6731 18.5028 22.2287 18.5028C19.7342 18.5028 17.0962 18.1851 14.6635 17.6081V19.5951H12.3898C12.1381 19.5951 11.9327 19.3899 11.9327 19.138V18.1192H12.2853C12.7306 18.1192 13.0948 17.7551 13.0948 17.3097V15.2102C13.0948 14.7646 12.7306 14.4006 12.2853 14.4006H10.8095C10.3601 14.4006 10 14.7648 10 15.2102V17.3097C10 17.7552 10.3603 18.1192 10.8095 18.1192H11.1581V19.138C11.1581 19.8158 11.712 20.3698 12.3898 20.3698H14.6635V25.4129C14.6635 26.5943 15.6281 27.555 16.8095 27.555H18.5642C18.7578 25.7074 20.3267 24.2587 22.2285 24.2587C24.1265 24.2587 25.6954 25.7074 25.889 27.555H27.6437C28.8289 27.555 29.7896 26.5945 29.7896 25.4129V20.3698H32.0633C32.7411 20.3698 33.2951 19.8158 33.2951 19.138V18.1192H33.6475C34.0931 18.1192 34.457 17.7551 34.457 17.3097V15.2102C34.4572 14.7648 34.0931 14.4006 33.6477 14.4006L33.6479 14.4008ZM21.9615 23.457C20.815 23.457 19.8853 22.5273 19.8853 21.3808C19.8853 20.2382 20.815 19.3046 21.9615 19.3046C23.1041 19.3046 24.0377 20.2382 24.0377 21.3808C24.0377 22.5275 23.1043 23.457 21.9615 23.457Z" fill="black"/>
</svg>