<svg width="45" height="40" viewBox="0 0 45 40" fill="none" xmlns="http://www.w3.org/2000/svg">
<rect width="45" height="40" rx="4" fill="white"/>
<rect x="19.8516" y="22.3018" width="4.30435" height="11.6984" rx="2.15217" fill="#B0B5BF"/>
<path fill-rule="evenodd" clip-rule="evenodd" d="M26.5293 7.72607H24.8482C24.3518 6.70701 23.2656 6 22.0054 6C20.7453 6 19.6591 6.70701 19.1627 7.72607H17.4755C16.94 7.72607 16.4777 8.0396 16.2621 8.4931H13.5754C13.2576 8.4931 13 8.75073 13 9.06853C13 9.38633 13.2576 9.64396 13.5754 9.64396H16.2619C16.4774 10.0977 16.9398 10.4114 17.4755 10.4114H19.2655C19.7993 11.326 20.8262 11.9451 22.0054 11.9451C23.1846 11.9451 24.2115 11.326 24.7453 10.4114H26.5293C27.065 10.4114 27.5274 10.0977 27.7428 9.64396H30.4246C30.7424 9.64396 31 9.38633 31 9.06853C31 8.75073 30.7424 8.4931 30.4246 8.4931H27.7426C27.5271 8.0396 27.0648 7.72607 26.5293 7.72607ZM22.0037 10.7944C23.0844 10.7944 23.9605 9.97842 23.9605 8.97189C23.9605 7.96536 23.0844 7.14941 22.0037 7.14941C20.923 7.14941 20.0469 7.96536 20.0469 8.97189C20.0469 9.97842 20.923 10.7944 22.0037 10.7944Z" fill="#B0B5BF"/>
<path fill-rule="evenodd" clip-rule="evenodd" d="M18.9071 23.8143V28.8964C16.2656 28.8964 15.2875 26.3073 15.0917 23.8142C14.8805 21.126 14.9337 19.6533 15.1897 17.0062C15.3844 14.9925 16.7298 13.1343 18.9071 12.883C20.569 12.6911 22.678 12.6225 25.0701 12.883C26.8298 13.0746 28.6494 14.7048 28.8842 17.0062C29.0798 18.9239 29.0798 22.1841 28.9831 23.8143C28.7955 26.9786 27.1244 28.8964 25.0701 28.8964V23.8143C25.0701 20.0746 18.9071 19.9788 18.9071 23.8143ZM17.125 15.9884C17.125 15.5561 17.4755 15.2056 17.9079 15.2056C18.3402 15.2056 18.6907 15.5561 18.6907 15.9884V17.684C18.6907 18.1163 18.3402 18.4668 17.9079 18.4668C17.4755 18.4668 17.125 18.1163 17.125 17.684V15.9884ZM25.9313 15.2056C25.4989 15.2056 25.1484 15.5561 25.1484 15.9884V17.684C25.1484 18.1163 25.4989 18.4668 25.9313 18.4668C26.3637 18.4668 26.7142 18.1163 26.7142 17.684V15.9884C26.7142 15.5561 26.3637 15.2056 25.9313 15.2056Z" fill="#B0B5BF"/>
</svg>
