<svg width="21" height="20" viewBox="0 0 21 20" fill="none" xmlns="http://www.w3.org/2000/svg">
<path d="M15.464 8.50953C15.7015 8.50953 15.9176 8.53107 16.1552 8.55277L16.155 3.97408C16.155 2.52704 14.9671 1.33917 13.5201 1.33917H11.8355V0.691201C11.8355 0.302521 11.5331 0 11.1443 0C10.7556 0 10.4531 0.302359 10.4531 0.691201V1.33917H5.70161V0.691201C5.70161 0.302521 5.39926 0 5.01041 0C4.62173 0 4.31921 0.302359 4.31921 0.691201V1.33917H2.65616C1.18791 1.33917 0 2.52692 0 3.97408V13.0019C0 14.4489 1.18791 15.6368 2.63491 15.6368H9.0494C9.02785 15.3992 9.00616 15.1832 9.00616 14.9456C9.0277 11.4036 11.9219 8.5095 15.4638 8.5095L15.464 8.50953ZM1.38232 5.33468V3.99567C1.38232 3.30447 1.94382 2.72145 2.65654 2.72145H4.31959V3.36942C4.31959 3.7581 4.62195 4.06062 5.0108 4.06062C5.39948 4.06062 5.702 3.75826 5.702 3.36942V2.72145H10.4535V3.36942C10.4535 3.7581 10.7558 4.06062 11.1447 4.06062C11.5333 4.06062 11.8359 3.75826 11.8359 3.36942V2.72145H13.5205C14.2117 2.72145 14.7731 3.28295 14.7731 3.99567V5.33468H1.38232Z" fill="black"/>
<path d="M15.4703 9.88919C12.6843 9.88919 10.4165 12.157 10.4165 14.943C10.4165 17.7291 12.6843 19.9969 15.4703 19.9969C18.2564 19.9969 20.5242 17.7291 20.5242 14.943C20.5242 12.157 18.2564 9.88919 15.4703 9.88919ZM17.3708 15.6342H15.4702C15.0815 15.6342 14.779 15.3318 14.779 14.943L14.7791 12.5889C14.7791 12.2002 15.0815 11.8977 15.4703 11.8977C15.859 11.8977 16.1615 12.2 16.1615 12.5889V14.2519H17.371C17.7596 14.2519 18.0622 14.5543 18.0622 14.9431C18.062 15.3318 17.7597 15.6342 17.3708 15.6342Z" fill="black"/>
</svg>
