<svg width="100" height="100" viewBox="0 0 100 100" fill="none" xmlns="http://www.w3.org/2000/svg">
<path d="M50 78C55.5379 78 60.9514 76.3578 65.556 73.2811C70.1605 70.2045 73.7494 65.8315 75.8686 60.7151C77.9879 55.5988 78.5424 49.9689 77.462 44.5375C76.3816 39.106 73.7149 34.1169 69.799 30.201C65.8831 26.2852 60.894 23.6184 55.4625 22.538C50.0311 21.4576 44.4012 22.0121 39.2849 24.1314C34.1685 26.2506 29.7955 29.8395 26.7188 34.444C23.6422 39.0486 22 44.4621 22 50C22 57.4261 24.95 64.548 30.201 69.799C35.452 75.05 42.5739 78 50 78ZM35.4655 50.7382C35.9424 50.2641 36.5875 49.998 37.26 49.998C37.9325 49.998 38.5776 50.2641 39.0545 50.7382L44.9091 56.5927L59.6473 41.8546C60.1342 41.4375 60.7606 41.2196 61.4012 41.2444C62.0418 41.2691 62.6496 41.5347 63.1029 41.988C63.5562 42.4414 63.8218 43.0491 63.8465 43.6897C63.8713 44.3303 63.6534 44.9567 63.2364 45.4436L46.6909 61.9891C46.214 62.4632 45.5688 62.7293 44.8964 62.7293C44.2239 62.7293 43.5787 62.4632 43.1018 61.9891L35.4655 54.3527C35.2269 54.1161 35.0375 53.8346 34.9083 53.5244C34.779 53.2142 34.7125 52.8815 34.7125 52.5455C34.7125 52.2094 34.779 51.8767 34.9083 51.5665C35.0375 51.2563 35.2269 50.9748 35.4655 50.7382Z" fill="#000088"/>
<circle cx="50" cy="50" r="47" stroke="#000088" stroke-width="2"/>
</svg>
